<?xml version="1.0" encoding="utf-8"?>
<!-- Generator: Adobe Illustrator 21.0.2, SVG Export Plug-In . SVG Version: 6.00 Build 0)  -->
<svg version="1.1" id="Layer_1" xmlns="http://www.w3.org/2000/svg" xmlns:xlink="http://www.w3.org/1999/xlink" x="0px" y="0px"
	 viewBox="0 0 50 50" style="enable-background:new 0 0 50 50;" xml:space="preserve">
<style type="text/css">
	.st0{fill:#003168;}
</style>
<title>ico-search-b</title>
<g id="Layer_2">
	<g id="Layer_1-2">
		<path class="st0" d="M49.3,46L38.2,35c3.1-3.8,4.8-8.6,4.7-13.5C42.9,9.6,33.3,0,21.4,0S0,9.7,0,21.5c0,11.8,9.6,21.4,21.5,21.4
			c4.9,0,9.7-1.7,13.5-4.8l11.1,11.1c0.4,0.4,1,0.7,1.6,0.7c0.6,0,1.2-0.3,1.6-0.7C50.2,48.4,50.2,46.9,49.3,46
			C49.3,46,49.3,46,49.3,46z M21.5,38.3c-9.3,0-16.9-7.6-16.9-16.9c0-9.3,7.6-16.9,16.9-16.9c9.3,0,16.9,7.6,16.9,16.9
			C38.3,30.8,30.8,38.3,21.5,38.3z"/>
	</g>
</g>
</svg>
